<?xml version="1.0" encoding="UTF-8" standalone="no"?>
<!-- Created with Inkscape (http://www.inkscape.org/) -->

<svg
   xmlns:dc="http://purl.org/dc/elements/1.1/"
   xmlns:cc="http://creativecommons.org/ns#"
   xmlns:rdf="http://www.w3.org/1999/02/22-rdf-syntax-ns#"
   xmlns:svg="http://www.w3.org/2000/svg"
   xmlns="http://www.w3.org/2000/svg"
   xmlns:sodipodi="http://sodipodi.sourceforge.net/DTD/sodipodi-0.dtd"
   xmlns:inkscape="http://www.inkscape.org/namespaces/inkscape"
   width="45.000015mm"
   height="49.921818mm"
   viewBox="0 0 159.44887 176.88833"
   id="svg4426"
   version="1.1"
   inkscape:version="0.91 r13725"
   sodipodi:docname="logo.svg">
  <defs
     id="defs4428" />
  <sodipodi:namedview
     id="base"
     pagecolor="#ffffff"
     bordercolor="#666666"
     borderopacity="1.0"
     inkscape:pageopacity="0.0"
     inkscape:pageshadow="2"
     inkscape:zoom="3.959798"
     inkscape:cx="33.862854"
     inkscape:cy="89.380965"
     inkscape:document-units="px"
     inkscape:current-layer="layer1"
     showgrid="false"
     fit-margin-top="0"
     fit-margin-left="0"
     fit-margin-right="0"
     fit-margin-bottom="0"
     inkscape:window-width="1881"
     inkscape:window-height="1176"
     inkscape:window-x="39"
     inkscape:window-y="24"
     inkscape:window-maximized="1" />
  <metadata
     id="metadata4431">
    <rdf:RDF>
      <cc:Work
         rdf:about="">
        <dc:format>image/svg+xml</dc:format>
        <dc:type
           rdf:resource="http://purl.org/dc/dcmitype/StillImage" />
        <dc:title></dc:title>
      </cc:Work>
    </rdf:RDF>
  </metadata>
  <g
     inkscape:label="Layer 1"
     inkscape:groupmode="layer"
     id="layer1"
     transform="translate(611.15301,213.22482)">
    <g
       transform="matrix(1.25,0,0,-1.25,-637.72776,-18.336487)"
       id="g4349">
      <path
         inkscape:connector-curvature="0"
         id="path22"
         style="fill:#3c3b3a;fill-opacity:1;fill-rule:evenodd;stroke:none"
         d="m 30.0739,33.5446 0,-1.794 c 0,-0.3784 -0.055,-0.7291 -0.1647,-1.0525 -0.11,-0.3235 -0.2687,-0.6044 -0.4759,-0.8422 -0.2075,-0.2381 -0.4641,-0.4241 -0.7691,-0.5584 -0.305,-0.1344 -0.6468,-0.2016 -1.0253,-0.2016 -0.7565,0 -1.3668,0.2322 -1.8306,0.6959 -0.4637,0.4638 -0.6956,1.1228 -0.6956,1.9772 l 0,7.5974 c 0,0.3663 0.0578,0.7141 0.1738,1.0435 0.1159,0.3296 0.2809,0.6196 0.4943,0.8696 0.2135,0.2503 0.4728,0.4456 0.7781,0.5859 0.305,0.1404 0.6528,0.2107 1.0435,0.2107 0.7812,0 1.3915,-0.2503 1.8309,-0.7507 0.4393,-0.5005 0.659,-1.1474 0.659,-1.9405 l 0,-1.1719 -0.9156,0 0,1.1719 c 0,0.5125 -0.1219,0.9459 -0.3659,1.2996 -0.2441,0.3541 -0.6409,0.531 -1.19,0.531 -0.4638,0 -0.8362,-0.171 -1.1169,-0.5125 -0.2806,-0.3419 -0.4209,-0.7872 -0.4209,-1.3366 l 0,-7.5974 c 0,-0.5493 0.1312,-0.9856 0.3934,-1.309 0.2625,-0.3235 0.65,-0.485 1.1625,-0.485 0.4638,0 0.83,0.1403 1.0985,0.4209 0.2687,0.2806 0.4028,0.7322 0.4028,1.3547 l 0,0.9521 -1.8672,0 0,0.8419 2.8009,0 z m 2.6362,7.6343 0,-7.7074 2.7644,0 0,-0.8422 -2.7644,0 0,-2.5631 3.4784,0 0,-0.8603 -4.4487,0 0,12.8152 4.4487,0 0,-0.8422 -3.4784,0 z m 8.7693,-11.1127 0,-0.8603 -3.7715,0 0,12.8152 0.9703,0 0,-11.9549 2.8012,0 z m 4.6315,2.5815 0,-0.0184 -2.1053,0 0,0.0184 -0.5309,-3.4418 -0.9703,0 1.9771,12.8152 1.1169,0 1.9956,-12.8152 -0.9522,0 -0.5309,3.4418 z m -0.1097,0.8604 -0.4944,3.1124 -0.4578,3.7894 -0.4575,-3.7894 -0.4759,-3.1124 1.8856,0 z m 6.9199,7.6708 -1.7756,0 0,-11.973 -0.9337,0 0,11.973 -1.7941,0 0,0.8422 4.5034,0 0,-0.8422 z m 2.3619,0 0,-7.7074 2.7643,0 0,-0.8422 -2.7643,0 0,-2.5631 3.4784,0 0,-0.8603 -4.4487,0 0,12.8152 4.4487,0 0,-0.8422 -3.4784,0 z m 9.8676,-11.973 -0.9521,0 0,2.2519 c 0,0.3293 -0.1006,0.595 -0.3019,0.7962 -0.2015,0.2016 -0.4791,0.3022 -0.8331,0.3022 l -1.8125,0 0,-3.3503 -0.9703,0 0,12.8152 2.3253,0 c 0.3416,0 0.665,-0.0488 0.97,-0.1466 0.3053,-0.0975 0.5706,-0.2503 0.7965,-0.4575 0.2257,-0.2075 0.4028,-0.4762 0.531,-0.8056 0.1281,-0.3297 0.1859,-0.7262 0.1737,-1.19 l 0,-4.2656 c 0,-0.354 -0.0884,-0.7231 -0.2653,-1.1077 -0.1769,-0.3844 -0.4362,-0.6863 -0.7781,-0.906 0.3906,-0.1465 0.6744,-0.3753 0.8512,-0.6865 0.1772,-0.3113 0.2656,-0.6441 0.2656,-0.9978 l 0,-2.2519 z m -3.8996,4.2106 1.355,0 c 0.1584,0 0.3294,0.0366 0.5125,0.11 0.1831,0.0731 0.3509,0.1831 0.5034,0.3294 0.1525,0.1465 0.2775,0.3296 0.3753,0.5493 0.0975,0.2197 0.1466,0.47 0.1466,0.7506 l 0,4.2656 c 0,0.5369 -0.1281,0.9612 -0.3847,1.2722 -0.2562,0.3113 -0.6406,0.4669 -1.1531,0.4669 l -1.355,0 0,-7.744 z m 5.7121,-4.2106 0,12.8152 0.9703,0 0,-12.8152 -0.9703,0 z m 6.0046,3.4418 0,-0.0184 -2.1052,0 0,0.0184 -0.531,-3.4418 -0.9703,0 1.9772,12.8152 1.1168,0 1.9956,-12.8152 -0.9521,0 -0.531,3.4418 z m -0.1097,0.8604 -0.4943,3.1124 -0.4578,3.7894 -0.4575,-3.7894 -0.476,-3.1124 1.8856,0 z m 9.9423,3.1855 c 0.1953,0.1466 0.3906,0.2166 0.5859,0.2107 0.1953,-0.0063 0.3906,-0.0247 0.5859,-0.055 0.1953,-0.0307 0.3966,-0.0428 0.6041,-0.0366 0.2075,0.0059 0.4209,0.0944 0.6406,0.2653 l 0.0369,-0.9519 C 85.1193,36.0283 84.9849,35.9612 84.8509,35.9246 84.7165,35.888 84.5946,35.8699 84.4846,35.8699 l 0,-4.394 c 0,-0.4759 -0.0731,-0.8694 -0.2197,-1.1806 -0.1465,-0.3113 -0.3325,-0.5584 -0.5584,-0.7416 -0.2256,-0.1831 -0.4759,-0.3112 -0.7506,-0.3843 -0.2744,-0.0735 -0.5459,-0.11 -0.8147,-0.11 -0.305,0 -0.595,0.049 -0.8694,0.1465 -0.2746,0.0975 -0.5127,0.2441 -0.714,0.4394 -0.2015,0.1953 -0.3631,0.4456 -0.4853,0.7506 -0.1219,0.305 -0.1828,0.6653 -0.1828,1.08 l 0,2.6181 c 0,0.4394 0.0791,0.8481 0.2378,1.2265 0.1587,0.3785 0.4088,0.6957 0.7506,0.9519 -0.4028,0.2444 -0.6956,0.5647 -0.8787,0.9612 -0.1831,0.3966 -0.2747,0.8757 -0.2747,1.4372 l 0,0.7322 c 0,0.3662 0.0487,0.7109 0.1465,1.0344 0.0976,0.3234 0.2441,0.6043 0.4394,0.8421 0.1953,0.2381 0.4394,0.4272 0.7322,0.5675 0.2931,0.1403 0.6347,0.2106 1.0253,0.2106 0.7322,0 1.2875,-0.2409 1.6659,-0.7231 0.3784,-0.4822 0.5675,-1.1197 0.5675,-1.9131 l 0,-1.0803 -0.9153,0 0,1.0803 c 0,0.5125 -0.0975,0.9366 -0.2928,1.2722 -0.1953,0.3359 -0.5372,0.5037 -1.0253,0.5037 -0.4638,0 -0.8116,-0.1618 -1.0434,-0.4853 -0.2319,-0.3234 -0.3478,-0.7597 -0.3478,-1.309 l 0,-0.7138 c 0,-0.2565 0.0243,-0.5006 0.0731,-0.7324 0.0487,-0.2319 0.1343,-0.4394 0.2562,-0.6225 0.1222,-0.1832 0.2778,-0.3263 0.4669,-0.43 0.1891,-0.1038 0.4303,-0.1557 0.7231,-0.1557 l 0.11,0 0,-0.8421 -0.0916,0 c -0.4515,-0.0244 -0.7934,-0.2166 -1.0252,-0.5769 -0.2319,-0.36 -0.3479,-0.7719 -0.3479,-1.2356 l 0,-2.6181 c 0,-0.5369 0.1282,-0.9306 0.3844,-1.1806 0.2563,-0.2503 0.5616,-0.3753 0.9153,-0.3753 0.4638,0 0.8178,0.1434 1.0619,0.4303 0.244,0.2866 0.3662,0.6681 0.3662,1.144 l 0,4.5037 c -0.0853,-0.0122 -0.1831,-0.0215 -0.2928,-0.0275 -0.11,-0.0062 -0.2443,-0.064 -0.4028,-0.174 l -0.0734,0.8971 z m 12.5971,-1.4281 c 0,-0.3172 -0.0549,-0.6315 -0.1646,-0.9428 -0.11,-0.3112 -0.2716,-0.5887 -0.4853,-0.8328 -0.2135,-0.244 -0.4729,-0.4425 -0.7779,-0.595 -0.3053,-0.1528 -0.659,-0.229 -1.0618,-0.229 l -1.5197,0 0,-3.46 -0.9703,0 0,12.8152 2.49,0 c 0.2928,0 0.5856,-0.046 0.8787,-0.1375 0.2928,-0.0913 0.5584,-0.2378 0.7963,-0.4394 0.2381,-0.2012 0.4334,-0.4637 0.5859,-0.7872 0.1525,-0.3234 0.2287,-0.7231 0.2287,-1.199 l 0,-4.1925 z m -0.9337,4.1925 c 0,0.5371 -0.1341,0.955 -0.4025,1.254 -0.2687,0.2991 -0.6531,0.4485 -1.1534,0.4485 l -1.5197,0 0,-7.634 1.5197,0 c 0.1953,0 0.3875,0.0397 0.5765,0.119 0.1894,0.0791 0.3572,0.1922 0.5035,0.3385 0.1465,0.1466 0.2625,0.3266 0.3478,0.5403 0.0856,0.2134 0.1281,0.4606 0.1281,0.7412 l 0,4.1925 z m 5.8218,-6.8103 0,-0.0184 -2.1053,0 0,0.0184 -0.5309,-3.4418 -0.9703,0 1.9772,12.8152 1.1168,0 1.9956,-12.8152 -0.9522,0 -0.5309,3.4418 z m -0.1097,0.8604 -0.4944,3.1124 -0.4577,3.7894 -0.4576,-3.7894 -0.4759,-3.1124 1.8856,0 z m 6.9199,7.6708 -1.7756,0 0,-11.973 -0.9337,0 0,11.973 -1.7941,0 0,0.8422 4.5034,0 0,-0.8422 z m 1.3916,-11.973 0,12.8152 0.9703,0 0,-12.8152 -0.9703,0 z m 5.2358,-0.1465 c -0.3784,0 -0.7231,0.064 -1.0343,0.1922 -0.3113,0.1284 -0.5797,0.3112 -0.8056,0.5493 -0.2259,0.2381 -0.3997,0.5247 -0.5219,0.8603 -0.1219,0.3357 -0.1828,0.705 -0.1828,1.1078 l 0,1.2447 0.9519,0 0,-1.2447 c -0.0122,-0.2441 0.0122,-0.4759 0.0731,-0.6956 0.0612,-0.2197 0.1587,-0.415 0.2931,-0.5859 0.1341,-0.171 0.3019,-0.3082 0.5034,-0.4119 0.2013,-0.1038 0.4422,-0.1556 0.7231,-0.1556 0.5126,0 0.8941,0.1737 1.1441,0.5215 0.2503,0.3481 0.3753,0.7782 0.3753,1.2909 l 0,0.8604 c 0,0.2075 -0.0428,0.3875 -0.1281,0.54 -0.0853,0.1525 -0.2044,0.2931 -0.3569,0.4212 -0.1525,0.1281 -0.3265,0.2472 -0.5218,0.3569 -0.1954,0.11 -0.4028,0.2259 -0.6225,0.3478 -0.2563,0.1465 -0.5216,0.299 -0.7963,0.4578 -0.2747,0.1587 -0.525,0.3387 -0.7506,0.54 -0.2259,0.2012 -0.4181,0.4362 -0.5769,0.7047 -0.1584,0.2687 -0.25,0.5859 -0.2743,0.9521 l 0,2.5631 c 0,0.366 0.0456,0.7078 0.1372,1.025 0.0915,0.3175 0.2349,0.595 0.4303,0.8331 0.1953,0.2378 0.4393,0.4272 0.7321,0.5675 0.2931,0.1403 0.641,0.2106 1.0435,0.2106 0.7324,0 1.2937,-0.2472 1.6843,-0.7415 0.3906,-0.4944 0.5859,-1.1137 0.5859,-1.8581 l 0,-1.6659 -0.9337,0 0,1.6475 c 0,0.4759 -0.1006,0.8849 -0.3022,1.2265 -0.2012,0.3419 -0.5459,0.5128 -1.0343,0.5128 -0.4147,0 -0.7475,-0.1434 -0.9975,-0.4303 -0.2503,-0.2869 -0.3753,-0.7294 -0.3753,-1.3272 l 0,-2.5265 c 0.0121,-0.2075 0.064,-0.3966 0.1556,-0.5675 0.0915,-0.1709 0.2103,-0.3234 0.3569,-0.4578 0.1465,-0.1341 0.3112,-0.2594 0.4943,-0.3753 0.1831,-0.1159 0.366,-0.2288 0.5491,-0.3385 0.3297,-0.1831 0.6409,-0.3571 0.9337,-0.5218 0.2928,-0.1647 0.5494,-0.3447 0.7691,-0.54 0.2196,-0.1953 0.3965,-0.4091 0.5309,-0.6409 0.1341,-0.2319 0.2013,-0.5125 0.2013,-0.8422 l 0,-0.9335 c 0,-0.354 -0.0488,-0.6927 -0.1466,-1.0162 -0.0975,-0.3234 -0.2472,-0.6072 -0.4484,-0.8512 -0.2013,-0.2441 -0.4578,-0.4394 -0.7691,-0.5859 -0.3109,-0.1463 -0.6741,-0.2197 -1.0891,-0.2197 z m 6.554,0 c -0.3784,0 -0.7231,0.064 -1.0343,0.1922 -0.3113,0.1284 -0.5797,0.3112 -0.8056,0.5493 -0.226,0.2381 -0.3997,0.5247 -0.5219,0.8603 -0.1219,0.3357 -0.1828,0.705 -0.1828,1.1078 l 0,1.2447 0.9518,0 0,-1.2447 c -0.0121,-0.2441 0.0122,-0.4759 0.0732,-0.6956 0.0612,-0.2197 0.1587,-0.415 0.2931,-0.5859 0.1341,-0.171 0.3019,-0.3082 0.5034,-0.4119 0.2013,-0.1038 0.4422,-0.1556 0.7231,-0.1556 0.5125,0 0.8941,0.1737 1.1441,0.5215 0.2503,0.3481 0.3753,0.7782 0.3753,1.2909 l 0,0.8604 c 0,0.2075 -0.0428,0.3875 -0.1281,0.54 -0.0853,0.1525 -0.2044,0.2931 -0.3569,0.4212 -0.1525,0.1281 -0.3266,0.2472 -0.5219,0.3569 -0.1953,0.11 -0.4028,0.2259 -0.6225,0.3478 -0.2562,0.1465 -0.5215,0.299 -0.7962,0.4578 -0.2747,0.1587 -0.525,0.3387 -0.7506,0.54 -0.2259,0.2012 -0.4181,0.4362 -0.5769,0.7047 -0.1584,0.2687 -0.25,0.5859 -0.2744,0.9521 l 0,2.5631 c 0,0.366 0.0457,0.7078 0.1372,1.025 0.0916,0.3175 0.235,0.595 0.4303,0.8331 0.1953,0.2378 0.4394,0.4272 0.7322,0.5675 0.2931,0.1403 0.6409,0.2106 1.0435,0.2106 0.7324,0 1.2937,-0.2472 1.6843,-0.7415 0.3906,-0.4944 0.5859,-1.1137 0.5859,-1.8581 l 0,-1.6659 -0.9337,0 0,1.6475 c 0,0.4759 -0.1006,0.8849 -0.3022,1.2265 -0.2012,0.3419 -0.5459,0.5128 -1.0343,0.5128 -0.4148,0 -0.7475,-0.1434 -0.9976,-0.4303 -0.2503,-0.2869 -0.3753,-0.7294 -0.3753,-1.3272 l 0,-2.5265 c 0.0122,-0.2075 0.0641,-0.3966 0.1557,-0.5675 0.0915,-0.1709 0.2103,-0.3234 0.3568,-0.4578 0.1466,-0.1341 0.3113,-0.2594 0.4944,-0.3753 0.1831,-0.1159 0.366,-0.2288 0.5491,-0.3385 0.3296,-0.1831 0.6409,-0.3571 0.9337,-0.5218 0.2928,-0.1647 0.5494,-0.3447 0.769,-0.54 0.2197,-0.1953 0.3966,-0.4091 0.531,-0.6409 0.1341,-0.2319 0.2012,-0.5125 0.2012,-0.8422 l 0,-0.9335 c 0,-0.354 -0.0487,-0.6927 -0.1465,-1.0162 -0.0975,-0.3234 -0.2472,-0.6072 -0.4485,-0.8512 -0.2012,-0.2441 -0.4578,-0.4394 -0.769,-0.5859 -0.311,-0.1463 -0.6741,-0.2197 -1.0891,-0.2197 z m 5.1809,12.1195 0,-7.7074 2.7644,0 0,-0.8422 -2.7644,0 0,-2.5631 3.4784,0 0,-0.8603 -4.4487,0 0,12.8152 4.4487,0 0,-0.8422 -3.4784,0 z m 9.8677,-11.973 -0.9522,0 0,2.2519 c 0,0.3293 -0.1006,0.595 -0.3018,0.7962 -0.2016,0.2016 -0.4791,0.3022 -0.8331,0.3022 l -1.8125,0 0,-3.3503 -0.9703,0 0,12.8152 2.3252,0 c 0.3416,0 0.665,-0.0488 0.9701,-0.1466 0.3052,-0.0975 0.5706,-0.2503 0.7965,-0.4575 0.2256,-0.2075 0.4028,-0.4762 0.5309,-0.8056 0.1281,-0.3297 0.186,-0.7262 0.1738,-1.19 l 0,-4.2656 c 0,-0.354 -0.0885,-0.7231 -0.2653,-1.1077 -0.1769,-0.3844 -0.4363,-0.6863 -0.7781,-0.906 0.3906,-0.1465 0.6743,-0.3753 0.8512,-0.6865 0.1772,-0.3113 0.2656,-0.6441 0.2656,-0.9978 l 0,-2.2519 z m -3.8996,4.2106 1.3549,0 c 0.1585,0 0.3294,0.0366 0.5125,0.11 0.1832,0.0731 0.351,0.1831 0.5035,0.3294 0.1525,0.1465 0.2775,0.3296 0.3753,0.5493 0.0975,0.2197 0.1465,0.47 0.1465,0.7506 l 0,4.2656 c 0,0.5369 -0.1281,0.9612 -0.3846,1.2722 -0.2563,0.3113 -0.6407,0.4669 -1.1532,0.4669 l -1.3549,0 0,-7.744 z m 5.7121,-4.2106 0,12.8152 0.9703,0 0,-12.8152 -0.9703,0 z m 3.8627,11.973 0,-7.7074 2.7644,0 0,-0.8422 -2.7644,0 0,-2.5631 3.4784,0 0,-0.8603 -4.4487,0 0,12.8152 4.4487,0 0,-0.8422 -3.4784,0 z" />
      <path
         inkscape:connector-curvature="0"
         id="path24"
         style="fill:#3c3b3a;fill-opacity:1;fill-rule:evenodd;stroke:none"
         d="m 100.1574,115.537 -30.2355,0 5.7229,-24.2861 c 0.3316,-1.4088 1.9644,-2.6994 3.4189,-2.6994 l 2.726,0 6.3278,0 2.8982,0 c 1.4547,0 3.0872,1.2906 3.4188,2.6994 l 5.7229,24.2861 z" />
      <path
         inkscape:connector-curvature="0"
         id="path26"
         style="fill:#f6f5ed;fill-opacity:1;fill-rule:evenodd;stroke:none"
         d="m 98.7069,114.2422 -27.3342,0 5.1735,-21.9555 c 0.7651,-3.2462 3.4648,-2.2728 5.5352,-1.6036 2.7842,0.9003 5.4346,-0.837 8.3608,-0.837 1.315,0 2.791,1.1667 3.0909,2.4406 l 5.1738,21.9555 z" />
      <path
         inkscape:connector-curvature="0"
         id="path28"
         style="fill:#3c3b3a;fill-opacity:1;fill-rule:evenodd;stroke:none"
         d="m 85.3475,90.7829 c 2.8862,1.0942 5.8564,1.9525 8.5025,2.8483 l 0.2736,1.1608 c -3.4209,-1.241 -7.5564,-2.3287 -11.3965,-3.9453 0.8791,0.1639 1.7485,0.0958 2.6204,-0.0638" />
      <path
         inkscape:connector-curvature="0"
         id="path30"
         style="fill:#3c3b3a;fill-opacity:1;fill-rule:evenodd;stroke:none"
         d="m 76.407,92.8772 c 5.1409,4.7568 13.4167,6.3739 19.2901,8.5923 l 0.2902,1.2317 C 90.3314,100.294 81.6712,98.8279 76.0986,94.1856 l 0.3084,-1.3084 z" />
      <path
         inkscape:connector-curvature="0"
         id="path32"
         style="fill:#3c3b3a;fill-opacity:1;fill-rule:evenodd;stroke:none"
         d="m 75.0506,98.6332 c 5.4309,6.4848 16.1725,7.8956 22.5207,10.7898 l 0.3252,1.3793 C 92.048,107.5459 80.7358,106.3899 74.7122,100.0706 l 0.3384,-1.4374 z" />
      <path
         inkscape:connector-curvature="0"
         id="path34"
         style="fill:#3c3b3a;fill-opacity:1;fill-rule:evenodd;stroke:none"
         d="m 73.779,104.0298 c 3.5062,5.8354 10.827,8.1706 17.2162,10.2124 l -3.2096,0 c -5.4377,-1.7895 -11.1444,-4.0363 -14.3907,-8.5825 l 0.3841,-1.6299 z" />
      <path
         inkscape:connector-curvature="0"
         id="path36"
         style="fill:#3c3b3a;fill-opacity:1;fill-rule:evenodd;stroke:none"
         d="m 72.2923,114.2422 c 7.2737,-5.9063 19.5874,-6.5934 23.8436,-10.9094 l -0.3507,-1.4891 c -3.4443,4.9623 -16.467,5.4298 -24.19,11.4534 l -0.2228,0.9451 0.9199,0 z" />
      <path
         inkscape:connector-curvature="0"
         id="path38"
         style="fill:#3c3b3a;fill-opacity:1;fill-rule:evenodd;stroke:none"
         d="m 73.2345,106.3406 c 6.6214,-4.7293 16.5844,-5.8507 21.4787,-9.0465 l -0.2886,-1.2248 c -4.2863,3.3687 -13.8935,4.4501 -20.81,8.6578 l -0.3801,1.6135 z" />
      <path
         inkscape:connector-curvature="0"
         id="path40"
         style="fill:#3c3b3a;fill-opacity:1;fill-rule:evenodd;stroke:none"
         d="m 75.2253,97.8928 c 5.6982,-3.2426 12.9897,-4.5595 17.6819,-6.7839 -0.2517,-0.2965 -0.5584,-0.5587 -0.8923,-0.767 -4.3339,2.0854 -10.9469,3.3667 -16.4554,6.1316 l -0.3342,1.4193 z" />
      <path
         inkscape:connector-curvature="0"
         id="path42"
         style="fill:#3c3b3a;fill-opacity:1;fill-rule:nonzero;stroke:none"
         d="m 73.6583,145.5851 c 0.0096,0.003 0.0192,0.007 0.0292,0.01 0.1196,-3.4628 1.2688,-6.3031 2.2042,-8.6145 1.0539,-2.6039 1.8235,-4.5057 0.4277,-5.785 3.3914,-0.53 1.8987,3.8291 1.1543,5.6679 -1.2073,2.9832 -2.7791,6.8675 -1.9225,11.8502 0.2299,1.3369 0.8076,2.5042 1.6005,3.4586 0.8753,1.0539 2.0103,1.8493 3.2238,2.3275 1.1268,0.4439 2.2893,0.6047 3.3202,0.4272 -0.388,-1.0531 1.3318,-4.3676 1.8097,-3.0676 0.3098,0.8424 1.8748,-0.0349 1.9599,0.5828 0.2435,1.7705 -2.4574,3.1189 -3.8347,3.3562 -1.486,0.2554 -3.0479,0.0683 -4.4714,-0.4927 -1.3371,-0.5267 -2.5804,-1.3938 -3.5292,-2.5364 -0.845,-1.0174 -1.4595,-2.2536 -1.7016,-3.661 -0.1429,-0.8308 -0.2197,-1.6322 -0.2432,-2.404 -0.0187,-0.003 -0.0371,-0.007 -0.0561,-0.01 l 0.0292,-1.1089 z" />
      <path
         inkscape:connector-curvature="0"
         id="path44"
         style="fill:#3c3b3a;fill-opacity:1;fill-rule:nonzero;stroke:none"
         d="m 91.4003,138.2649 c 0.0335,-0.0221 0.0675,-0.0447 0.1012,-0.0671 2.8364,-1.8769 6.2578,-4.142 6.7164,-10.0299 1.391,-0.644 2.5246,-1.5355 3.4226,-2.573 1.3118,-1.5151 2.0642,-3.2893 2.3522,-5.019 0.2746,-1.6475 0.1292,-3.2768 -0.3518,-4.5907 -0.3189,-0.8714 -0.7858,-1.6053 -1.3748,-2.1152 -4.8518,-4.2007 -12.6394,-2.7527 -19.2906,-1.5163 -5.8658,1.0905 -10.8134,2.0101 -11.7672,-1.4346 l -0.4816,0.2061 c -1.1271,0.4144 -2.0892,1.1356 -2.8613,2.0602 -0.9666,1.1574 -1.5883,2.6025 -1.8167,4.1156 -0.2152,1.4208 -0.0882,2.9311 0.4243,4.3254 0.4561,1.241 1.2175,2.3927 2.3136,3.3081 0.6472,0.5402 1.302,1.0088 1.9579,1.4161 -0.9518,2.558 -0.3478,4.277 0.9074,5.5027 1.2382,1.2089 3.1124,1.9335 4.7067,2.518 0.4019,0.1474 0.8319,0.2948 1.2665,0.4436 2.9857,1.0219 6.222,2.1297 5.2307,5.1574 -0.3223,0.9844 -0.3659,1.9465 -0.1893,2.8335 0.2012,1.0122 0.688,1.9332 1.3691,2.6781 0.6798,0.743 1.5585,1.3187 2.5458,1.6419 0.9292,0.3041 1.963,0.3846 3.0291,0.1729 1.389,-0.2764 2.4741,-0.9196 3.2976,-1.7569 0.9765,-0.9927 1.5083,-2.1838 1.709,-3.3273 0.1241,-0.7073 0.0836,-1.3417 -0.0859,-1.8848 -0.1726,-0.5528 -0.4768,-1.0083 -0.8751,-1.3473 -0.3988,-0.3396 -0.8983,-0.5684 -1.4598,-0.6667 -0.2537,-0.0445 -0.5202,-0.0618 -0.796,-0.0508" />
      <path
         inkscape:connector-curvature="0"
         id="path46"
         style="fill:#ffffff;fill-opacity:1;fill-rule:nonzero;stroke:none"
         d="m 89.7803,139.7322 c 0.5193,-0.1622 1.031,-0.1934 1.4984,-0.1114 0.4612,0.0807 0.8787,0.2746 1.2198,0.5652 0.3415,0.2911 0.6006,0.6743 0.7438,1.133 0.1366,0.4382 0.1695,0.9493 0.0697,1.5182 -0.1392,0.7934 -0.4586,1.5693 -1.0125,2.1325 -0.4609,0.4686 -1.1401,0.8431 -2.094,1.033 -0.9031,0.1797 -1.8008,0.1043 -2.6257,-0.1658 -0.908,-0.2974 -1.7198,-0.8309 -2.3519,-1.522 -0.6302,-0.6891 -1.0775,-1.5281 -1.2589,-2.4386 -0.1491,-0.7501 -0.1188,-1.5432 0.1389,-2.3307 1.2186,-3.7224 -2.2654,-4.915 -5.4796,-6.0151 -0.4235,-0.1448 -0.8422,-0.2883 -1.253,-0.4388 -1.5474,-0.5675 -3.3658,-1.2696 -4.5473,-2.4236 -0.936,-0.9142 -1.4695,-2.1141 -1.1228,-3.763 3.0557,1.6333 6.0894,2.0636 8.5581,2.4137 2.7813,0.3943 4.8126,0.6823 5.2194,2.5313 2.1594,-2.6679 -2.3607,-3.5628 -4.3245,-3.8412 -3.1865,-0.4518 -7.3352,-1.0403 -11.2164,-4.2803 -1.0412,-0.8697 -1.7609,-1.9548 -2.1892,-3.1192 -0.4729,-1.2861 -0.5916,-2.6672 -0.3966,-3.9566 0.1811,-1.1974 0.625,-2.2836 1.2957,-3.087 0.3918,-0.4688 0.8822,-0.8518 1.463,-1.1092 1.4147,3.212 6.3986,2.2862 12.2522,1.1977 6.4856,-1.2056 14.0794,-2.6178 18.7395,1.417 0.5378,0.4655 0.9638,1.1356 1.2549,1.9307 0.4411,1.2056 0.5749,2.6974 0.324,4.2035 -0.2372,1.4235 -0.8144,2.8355 -1.7966,3.9699 -0.6553,0.7571 -1.5199,1.4151 -2.6206,1.8975 0,-0.0156 8e-4,-0.0309 8e-4,-0.0465 0.0253,-2.1053 -0.8469,-4.1876 -2.2271,-5.7852 -1.3751,-1.5919 -3.265,-2.7156 -5.2832,-2.9143 3.971,2.8242 6.2438,5.1205 6.1914,9.4836 -0.0695,5.7696 -3.0818,7.7635 -5.5522,9.398 -1.2138,0.8033 -2.3244,1.5389 -3.1057,2.5237 -0.1692,0.1692 -0.3311,0.3495 -0.4807,0.5383 l -0.0026,0.002 c -0.5831,0.7362 -0.9913,1.5979 -0.9913,2.4149 0,0.5913 0.3819,1.1114 0.91,1.4397 0.2772,0.172 0.5986,0.2965 0.928,0.3535 0.3583,0.0623 0.7387,0.045 1.1041,-0.0732 0.7399,-0.2395 1.3666,-0.7557 1.7002,-1.6299 0.1523,-0.3243 0.1877,-0.6894 0.0701,-1.0352 -0.2614,-0.7702 -1.1821,-1.158 -2.0495,-0.8632 -0.718,0.2438 -1.1795,0.8805 -1.169,1.5296 -0.1103,-0.1613 -0.1749,-0.3359 -0.1749,-0.5145 0,-0.7395 0.9125,-1.9343 1.6438,-2.1622" />
      <path
         inkscape:connector-curvature="0"
         id="path48"
         style="fill:#3c3b3a;fill-opacity:1;fill-rule:evenodd;stroke:none"
         d="m 75.2638,139.8373 c -9.93,7.2567 -8.2698,-13.0263 1.4692,-12.1107 12.3415,1.1596 8.7959,22.0187 -1.4692,12.1107" />
      <path
         inkscape:connector-curvature="0"
         id="path50"
         style="fill:#ad2a4d;fill-opacity:1;fill-rule:evenodd;stroke:none"
         d="m 75.5498,138.9509 c -8.8843,5.1798 -5.7554,-11.5472 2.2658,-9.9462 10.1647,2.0282 5.4181,19.0718 -2.2658,9.9462" />
      <path
         inkscape:connector-curvature="0"
         id="path52"
         style="fill:#ffffff;fill-opacity:1;fill-rule:evenodd;stroke:none"
         d="m 80.5479,131.3442 c 3.2887,3.3533 1.5806,9.9323 -2.0617,9.2174 2.4925,-1.2504 3.5742,-5.6747 2.0617,-9.2174" />
      <path
         inkscape:connector-curvature="0"
         id="path54"
         style="fill:#ffffff;fill-opacity:1;fill-rule:evenodd;stroke:none"
         d="m 72.8459,138.6598 c -0.8995,0.0108 -1.4656,-0.3376 -1.7547,-0.8955 0.3098,-0.0754 0.6367,-0.172 0.9876,-0.297 0.2523,0.447 0.5088,0.8413 0.7671,1.1925" />
      <path
         inkscape:connector-curvature="0"
         id="path56"
         style="fill:#f6f5ed;fill-opacity:1;fill-rule:evenodd;stroke:none"
         d="m 70.1478,113.15 c 5.5075,11.179 28.825,6.3045 19.4976,19.4522 1.6169,-6.7221 -3.291,-6.6546 -8.0952,-7.5169 C 75.435,123.9874 68.0029,121.2999 70.1478,113.15" />
      <path
         inkscape:connector-curvature="0"
         id="path58"
         style="fill:#f6f5ed;fill-opacity:1;fill-rule:evenodd;stroke:none"
         d="m 101.8967,123.6572 c -0.1426,-5.1874 -3.9257,-6.8647 -8.2536,-7.6417 -2.9376,-0.5272 -5.8981,-1.3464 -7.9435,-2.9582 5.614,-0.9292 11.5273,-1.345 15.4071,2.014 0.5375,0.466 0.9635,1.1356 1.2546,1.9307 0.4411,1.2056 0.5755,2.6974 0.324,4.2035 -0.1397,0.8396 -0.3985,1.6747 -0.7886,2.4517" />
      <path
         inkscape:connector-curvature="0"
         id="path60"
         style="fill:#3c3b3a;fill-opacity:1;fill-rule:evenodd;stroke:none"
         d="m 78.0018,18.3132 0,-2.4885 0.8926,0 0,-0.2721 -0.8926,0 0,-0.8272 1.1234,0 0,-0.2781 -1.4366,0 0,4.1378 1.4366,0 0,-0.2719 -1.1234,0 z M 80.4937,14.4 c -0.1221,0 -0.2335,0.0207 -0.3339,0.0621 -0.1006,0.0416 -0.1874,0.1006 -0.2602,0.1774 -0.0729,0.0768 -0.129,0.1693 -0.1687,0.2778 -0.0391,0.1083 -0.0589,0.2276 -0.0589,0.3578 l 0,0.4016 0.3072,0 0,-0.4016 c -0.0039,-0.0791 0.0043,-0.154 0.0239,-0.2248 0.0195,-0.0709 0.051,-0.1341 0.0943,-0.1891 0.0434,-0.055 0.0976,-0.0995 0.1628,-0.1329 0.0649,-0.0338 0.1428,-0.0505 0.2335,-0.0505 0.1653,0 0.2886,0.0561 0.3694,0.1684 0.0808,0.1125 0.121,0.2514 0.121,0.4169 l 0,0.2778 c 0,0.0669 -0.0136,0.1251 -0.0411,0.1744 -0.0278,0.0493 -0.066,0.0947 -0.1153,0.136 -0.0494,0.0411 -0.1055,0.0797 -0.1687,0.1154 -0.0629,0.0352 -0.1298,0.0726 -0.2007,0.1123 -0.0828,0.047 -0.1687,0.0963 -0.2574,0.1476 -0.0884,0.0514 -0.1692,0.1092 -0.2423,0.1744 -0.0726,0.0649 -0.135,0.1409 -0.186,0.2276 -0.0513,0.0867 -0.0808,0.1891 -0.0887,0.3073 l 0,0.8277 c 0,0.1182 0.0147,0.2285 0.0442,0.3308 0.0295,0.1026 0.076,0.1922 0.1389,0.2693 0.0629,0.0765 0.142,0.1377 0.2364,0.1831 0.0947,0.0451 0.2069,0.0678 0.337,0.0678 0.2365,0 0.4179,-0.0797 0.5437,-0.2393 0.1262,-0.1596 0.1894,-0.3597 0.1894,-0.5998 l 0,-0.5383 -0.3016,0 0,0.5323 c 0,0.1534 -0.0323,0.2858 -0.0975,0.3958 -0.065,0.1105 -0.1764,0.1658 -0.334,0.1658 -0.1338,0 -0.2412,-0.0465 -0.322,-0.1392 -0.0808,-0.0924 -0.1213,-0.2353 -0.1213,-0.4283 l 0,-0.8158 c 0.004,-0.0672 0.0207,-0.1281 0.0505,-0.1831 0.0292,-0.0553 0.0677,-0.1046 0.115,-0.148 0.0474,-0.0434 0.1007,-0.0836 0.1596,-0.121 0.0593,-0.0375 0.1182,-0.074 0.1775,-0.1095 0.1063,-0.0592 0.2069,-0.1153 0.3013,-0.1686 0.0947,-0.053 0.1772,-0.1111 0.2483,-0.1744 0.0709,-0.0629 0.1279,-0.1318 0.1712,-0.2066 0.0434,-0.0748 0.0652,-0.1655 0.0652,-0.2721 l 0,-0.3014 c 0,-0.1145 -0.0158,-0.2236 -0.0473,-0.3279 -0.0315,-0.1046 -0.0797,-0.1962 -0.1449,-0.275 -0.0649,-0.0791 -0.1476,-0.142 -0.2483,-0.1891 C 80.7449,14.4238 80.6275,14.4 80.4937,14.4 Z m 2.7043,3.9132 -0.5735,0 0,-3.8659 -0.3013,0 0,3.8659 -0.5794,0 0,0.2719 1.4542,0 0,-0.2719 z m 0.4286,-3.8659 0,0.5437 0.2959,0 0,-0.5437 -0.2959,0 z m 2.2994,4.1378 0,-4.1378 -0.3016,0 0,3.86 -0.3489,0 0,0.2778 0.6505,0 z m 2.202,-3.316 c 0,-0.1222 -0.0187,-0.2356 -0.0561,-0.3399 -0.0374,-0.1046 -0.0907,-0.1953 -0.1596,-0.2721 -0.0692,-0.0768 -0.1537,-0.1366 -0.2543,-0.18 -0.1006,-0.0434 -0.2137,-0.0652 -0.3399,-0.0652 -0.1221,0 -0.2315,0.0235 -0.3282,0.0709 -0.0964,0.0473 -0.1783,0.1102 -0.2449,0.1893 -0.0672,0.0788 -0.1182,0.1704 -0.1539,0.2747 -0.0355,0.1043 -0.0533,0.2137 -0.0533,0.3283 l 0,0.2009 0.3016,0 0,-0.2009 c 0,-0.1616 0.0405,-0.2977 0.1213,-0.4082 0.0808,-0.11 0.1998,-0.1653 0.3574,-0.1653 0.1735,0 0.3025,0.0541 0.3873,0.1624 0.0847,0.1086 0.1269,0.2435 0.1269,0.4051 l 0,1.0463 c -0.0433,-0.1026 -0.1122,-0.1871 -0.2066,-0.2543 -0.0947,-0.0669 -0.201,-0.1003 -0.3192,-0.1003 -0.142,0 -0.2622,0.0314 -0.3605,0.0943 -0.0987,0.0633 -0.1783,0.1449 -0.2396,0.2455 -0.0612,0.1004 -0.1054,0.2118 -0.1329,0.334 -0.0275,0.1218 -0.0417,0.2443 -0.0417,0.3665 l 0,0.5791 c 0,0.1222 0.015,0.2443 0.0445,0.3665 0.0295,0.1222 0.0768,0.2316 0.142,0.328 0.0649,0.0966 0.1486,0.1746 0.2512,0.2336 0.1023,0.0592 0.2265,0.0887 0.3722,0.0887 0.142,0 0.263,-0.0275 0.3637,-0.0828 0.1003,-0.0553 0.1811,-0.1301 0.2423,-0.2248 0.0612,-0.0944 0.1063,-0.2038 0.1361,-0.328 0.0295,-0.1241 0.0442,-0.2531 0.0442,-0.3872 l 0,-2.3051 z m -0.3073,2.3051 c 0,0.0868 -0.0068,0.1747 -0.021,0.2631 -0.0136,0.0887 -0.0391,0.1687 -0.0765,0.2395 -0.0377,0.0709 -0.0867,0.1281 -0.148,0.1715 -0.0609,0.0434 -0.1386,0.0649 -0.2335,0.0649 -0.0905,0 -0.1673,-0.0215 -0.2305,-0.0649 -0.0629,-0.0434 -0.1154,-0.0998 -0.1565,-0.1686 -0.0413,-0.0689 -0.0711,-0.1477 -0.0887,-0.2365 -0.0176,-0.0887 -0.0266,-0.1763 -0.0266,-0.263 l 0,-0.5791 c 0,-0.0749 0.0068,-0.1557 0.0207,-0.2424 0.0139,-0.0867 0.0382,-0.1687 0.0739,-0.2455 0.0355,-0.0765 0.0857,-0.1409 0.1509,-0.1919 0.0649,-0.0513 0.1505,-0.0771 0.2568,-0.0771 0.0867,0 0.1598,0.025 0.2188,0.074 0.0592,0.0493 0.1086,0.1125 0.1477,0.1891 0.0394,0.0768 0.0683,0.1596 0.0859,0.2483 0.0176,0.0887 0.0266,0.1726 0.0266,0.2511 l 0,0.5675 z m 1.806,-1.0168 c 0.2364,0 0.4246,-0.0725 0.5646,-0.2185 0.1398,-0.1457 0.2098,-0.3586 0.2098,-0.6384 l 0,-0.4374 c -0.004,-0.1221 -0.0227,-0.2344 -0.0561,-0.337 -0.0335,-0.1026 -0.0828,-0.1922 -0.148,-0.269 -0.0649,-0.0768 -0.1457,-0.1366 -0.2421,-0.18 -0.0966,-0.0434 -0.21,-0.0652 -0.3398,-0.0652 -0.1302,0 -0.2455,0.0218 -0.3459,0.0652 -0.1006,0.0434 -0.1854,0.1032 -0.2542,0.18 -0.0689,0.0768 -0.1214,0.1675 -0.1568,0.2721 -0.0354,0.1043 -0.053,0.2157 -0.053,0.3339 l 0,2.5181 c 0,0.2522 0.0737,0.4561 0.2217,0.6117 0.1477,0.1556 0.3458,0.2336 0.5941,0.2336 0.248,0 0.4374,-0.078 0.5672,-0.2336 0.1301,-0.1556 0.195,-0.3614 0.195,-0.6174 l 0,-0.2069 -0.3016,0 0,0.2069 c 0,0.1692 -0.0374,0.3081 -0.1122,0.4164 -0.0748,0.1083 -0.1911,0.1627 -0.3484,0.1627 -0.1539,0 -0.275,-0.0513 -0.3637,-0.1536 -0.0887,-0.1024 -0.1369,-0.2424 -0.1448,-0.4198 l 0,-1.5132 c 0.0589,0.0987 0.1377,0.1712 0.2364,0.2186 0.0986,0.0473 0.1913,0.0708 0.2778,0.0708 z m 0.4728,-0.8569 c 0,0.201 -0.0403,0.3487 -0.121,0.4434 -0.0808,0.0944 -0.1982,0.142 -0.3518,0.142 -0.1616,0 -0.2866,-0.0584 -0.3753,-0.1746 -0.0888,-0.1162 -0.133,-0.2571 -0.133,-0.4227 l 0,-0.4255 c 0,-0.1496 0.0414,-0.2809 0.1242,-0.3931 0.0828,-0.1123 0.2066,-0.1684 0.3725,-0.1684 0.1615,0 0.2826,0.0561 0.3634,0.1684 0.0807,0.1122 0.121,0.2452 0.121,0.3991 l 0,0.4314 z m 1.0199,0.148 0.3665,0 c 0.0471,0.2086 0.0947,0.4116 0.142,0.6086 0.0471,0.197 0.0964,0.398 0.1474,0.6029 l 0.3016,1.2592 -1.182,0 0,0.2659 1.4953,0 0,-0.2305 -0.5911,-2.5061 0.2954,0 0,-0.2543 -0.3603,0 0,0.006 C 91.7144,15.5211 91.6968,15.4434 91.6809,15.3666 91.6654,15.2898 91.6475,15.2118 91.6279,15.133 L 91.5746,14.8966 C 91.5588,14.8218 91.542,14.747 91.5242,14.6721 91.5066,14.597 91.4896,14.5222 91.474,14.4473 l -0.3192,0 0.2719,1.1469 -0.3073,0 0,0.2543 z" />
      <path
         inkscape:connector-curvature="0"
         id="path62"
         style="fill:#ad2a4d;fill-opacity:1;fill-rule:evenodd;stroke:none"
         d="m 124.4248,46.7459 24.3941,0 0,-0.8263 -127.5591,0 0,0.8263 24.4001,0 78.7649,0 z" />
      <path
         inkscape:connector-curvature="0"
         id="path64"
         style="fill:#ad2a4d;fill-opacity:1;fill-rule:evenodd;stroke:none"
         d="m 124.4248,25.2519 24.3941,0 0,-0.8263 -127.5591,0 0,0.8263 24.4001,0 78.7649,0 z" />
      <path
         inkscape:connector-curvature="0"
         id="path66"
         style="fill:#ad2a4d;fill-opacity:1;fill-rule:evenodd;stroke:none"
         d="m 33.9732,66.3301 -0.0062,-0.2953 -0.0196,-0.3005 -0.0323,-0.2991 -0.0456,-0.299 -0.0587,-0.2971 -0.0711,-0.2965 -0.0842,-0.2954 -0.0981,-0.295 -0.11,-0.2909 -0.1233,-0.2849 -0.1358,-0.2775 -0.1485,-0.2695 -0.161,-0.2617 L 32.705,62.3137 32.5196,62.0688 32.3212,61.8307 32.1111,61.6028 31.89,61.3851 31.6576,61.1782 31.4144,60.9823 31.1613,60.7986 30.8971,60.6254 30.6235,60.4638 30.3364,60.3122 30.0345,60.1736 29.719,60.0525 29.3933,59.9508 29.0568,59.8674 28.711,59.8037 28.3558,59.758 27.9916,59.7311 27.6233,59.722 l -3.0259,0 0,-8.0918 -3.3376,0 0,31.038 6.3627,0 0.273,-0.0057 0.2772,-0.0167 0.2772,-0.0272 0.2767,-0.0374 0.2775,-0.0491 0.2761,-0.0589 0.2758,-0.0703 0.2761,-0.0808 0.2778,-0.0938 0.2727,-0.1083 0.2667,-0.1214 0.2597,-0.1352 0.2534,-0.1477 0.246,-0.1615 0.239,-0.1738 0.233,-0.1885 0.2262,-0.203 0.2166,-0.2185 0.2061,-0.2327 0.1936,-0.2466 0.1831,-0.2597 0.1718,-0.2735 0.1607,-0.2863 0.1502,-0.3025 0.1389,-0.3217 0.1205,-0.3422 0.1009,-0.3569 0.0814,-0.3719 0.0632,-0.3866 0.0448,-0.4017 0.0266,-0.4167 0.0082,-0.4263 0,-9.815 z m -3.2516,9.8014 -0.0136,0.4309 -0.0403,0.3923 -0.0657,0.3631 -0.0904,0.3333 -0.1143,0.3051 -0.1372,0.2778 -0.1598,0.2522 -0.1843,0.2282 -0.2035,0.2027 -0.2234,0.1735 -0.2449,0.148 -0.2699,0.1224 -0.2959,0.0975 -0.3243,0.0706 -0.3538,0.0437 -0.3937,0.0147 -3.0092,0 0,-16.7851 3.012,0 0.1511,0.0043 0.1429,0.0107 0.1432,0.0185 0.1417,0.0255 0.1428,0.0334 0.1423,0.0406 0.1426,0.0482 0.142,0.0555 0.1404,0.0635 0.1363,0.0692 0.1318,0.0751 0.1267,0.0805 0.1236,0.0876 0.1196,0.0941 0.1163,0.1006 0.1114,0.106 0.1057,0.112 0.1001,0.1179 0.0946,0.1245 0.0896,0.1309 0.0842,0.1387 0.0791,0.1457 0.074,0.1539 0.068,0.1596 0.0607,0.1652 0.0527,0.1712 0.0451,0.1789 0.0368,0.1874 0.0292,0.1958 0.021,0.2041 0.0127,0.2126 0.004,0.2262 0,9.7912 z" />
      <path
         inkscape:connector-curvature="0"
         id="path68"
         style="fill:#ad2a4d;fill-opacity:1;fill-rule:evenodd;stroke:none"
         d="m 33.1994,51.6302 4.7885,31.038 3.5275,0 4.833,-31.038 -3.3086,0 -1.2347,8.0062 -4.0207,0 -1.2348,-8.0062 -3.3502,0 z m 8.1742,11.1297 -1.059,6.6696 -0.5411,4.4816 -0.5412,-4.4799 -1.0204,-6.6713 3.1617,0 z" />
      <path
         inkscape:connector-curvature="0"
         id="path70"
         style="fill:#ad2a4d;fill-opacity:1;fill-rule:evenodd;stroke:none"
         d="m 60.0222,66.3301 -0.0059,-0.2953 -0.0199,-0.3005 -0.0323,-0.2991 -0.0456,-0.299 -0.0587,-0.2971 -0.0712,-0.2965 -0.0842,-0.2954 -0.098,-0.295 -0.11,-0.2912 L 59.3725,63.3764 59.237,63.0989 59.0885,62.8294 58.9275,62.5677 58.754,62.314 58.5686,62.0688 58.3702,61.8307 58.1601,61.6028 57.939,61.3851 57.7066,61.1782 57.4634,60.9823 57.2102,60.7986 56.9458,60.6254 56.6722,60.4638 56.3854,60.3122 56.0835,60.1736 55.768,60.0525 55.4423,59.9508 55.1058,59.8674 54.76,59.8037 54.4048,59.758 54.0403,59.7311 53.672,59.722 l -3.026,0 0,-8.0918 -3.3375,0 0,31.038 6.3627,0 0.273,-0.0057 0.2772,-0.0167 0.2772,-0.0272 0.2767,-0.0374 0.2775,-0.0491 0.2761,-0.0589 0.2758,-0.0703 0.2761,-0.0808 0.2781,-0.0938 0.2727,-0.1083 0.2667,-0.1214 0.2597,-0.1352 0.2534,-0.1477 0.246,-0.1615 0.239,-0.1738 0.233,-0.1885 0.2265,-0.203 0.2163,-0.2185 0.2058,-0.2327 0.1936,-0.2466 0.1831,-0.2597 0.1718,-0.2735 0.1607,-0.2863 0.1502,-0.3025 0.1389,-0.3217 0.1205,-0.3422 0.1009,-0.3569 0.0814,-0.3719 0.0632,-0.3863 0.045,-0.4017 0.0267,-0.417 0.0082,-0.4263 0,-9.815 z m -3.2519,9.8014 -0.0136,0.4309 -0.0403,0.3923 -0.0657,0.3631 -0.0904,0.3333 -0.1143,0.3051 -0.1372,0.2778 -0.1601,0.2522 -0.1837,0.2282 -0.2038,0.2027 -0.2231,0.1735 -0.2452,0.148 -0.2699,0.1224 -0.2959,0.0975 -0.3243,0.0706 -0.3538,0.0437 -0.3937,0.0147 -3.0093,0 0,-16.7851 3.0121,0 0.1511,0.0043 0.1429,0.0107 0.1431,0.0185 0.1418,0.0255 0.1428,0.0334 0.1423,0.0406 0.1426,0.0482 0.1423,0.0558 0.1406,0.0632 0.1361,0.0692 0.1318,0.0751 0.1267,0.0805 0.1236,0.0876 0.1196,0.0941 0.116,0.1003 0.1111,0.1061 0.106,0.1122 0.1001,0.1179 0.0946,0.1245 0.0896,0.1309 0.0842,0.1387 0.0791,0.1457 0.074,0.1539 0.068,0.1596 0.0607,0.1652 0.0527,0.1712 0.0451,0.1789 0.0368,0.1874 0.0295,0.1958 0.0207,0.2041 0.0127,0.2126 0.004,0.2262 0,9.7912 z" />
      <path
         inkscape:connector-curvature="0"
         id="path72"
         style="fill:#ad2a4d;fill-opacity:1;fill-rule:evenodd;stroke:none"
         d="m 59.3062,51.6302 4.7883,31.038 3.5274,0 4.8331,-31.038 -3.3084,0 -1.2347,8.0062 -4.0207,0 -1.235,-8.0062 -3.35,0 z m 8.1742,11.1297 -1.0595,6.6696 -0.5409,4.4811 -0.5411,-4.4794 -1.0205,-6.6713 3.162,0 z" />
      <path
         inkscape:connector-curvature="0"
         id="path74"
         style="fill:#ad2a4d;fill-opacity:1;fill-rule:evenodd;stroke:none"
         d="m 83.4795,54.7109 0,-3.0807 -9.8881,0 0,31.038 3.3375,0 0,-27.9573 6.5506,0 z" />
      <path
         inkscape:connector-curvature="0"
         id="path76"
         style="fill:#ad2a4d;fill-opacity:1;fill-rule:evenodd;stroke:none"
         d="m 84.8965,51.6302 0,31.038 3.3375,0 0,-31.038 -3.3375,0 z" />
      <path
         inkscape:connector-curvature="0"
         id="path78"
         style="fill:#ad2a4d;fill-opacity:1;fill-rule:evenodd;stroke:none"
         d="m 96.6189,51.3303 -0.3722,0.0088 -0.3634,0.0247 -0.354,0.0419 -0.3459,0.0579 -0.3364,0.0759 -0.3269,0.093 -0.3169,0.1097 -0.3073,0.1267 -0.2928,0.1417 -0.2817,0.1531 -0.2708,0.1658 -0.2613,0.1783 -0.25,0.1919 -0.2393,0.2036 -0.2279,0.2163 -0.2171,0.2281 -0.2041,0.2393 -0.1911,0.2458 -0.1791,0.2554 -0.1673,0.2641 -0.1533,0.273 -0.1417,0.2804 -0.1287,0.2885 -0.1171,0.2974 -0.1032,0.305 -0.0893,0.3098 -0.0751,0.3155 -0.0621,0.3203 -0.0473,0.3257 -0.0346,0.33 -0.0207,0.335 -0.0065,0.3345 0,18.1211 0.0065,0.3149 0.0193,0.3175 0.0326,0.3152 0.0453,0.3121 0.0582,0.3104 0.0717,0.3067 0.0839,0.3036 0.0969,0.3007 0.1103,0.2965 0.121,0.2886 0.1338,0.2818 0.1443,0.2732 0.157,0.2668 0.1687,0.2579 0.18,0.25 0.193,0.2438 0.2081,0.2361 0.2214,0.224 0.235,0.2117 0.2477,0.1987 0.2605,0.1857 0.2727,0.1724 0.2849,0.1593 0.2985,0.1468 0.3144,0.1327 0.3265,0.115 0.3382,0.0964 0.3492,0.0794 0.3612,0.0609 0.3707,0.0431 0.381,0.0255 0.3932,0.0094 0.3543,-0.0094 0.347,-0.026 0.3401,-0.0437 0.3334,-0.0618 0.3254,-0.0796 0.3175,-0.0973 0.3095,-0.1153 0.2988,-0.1327 0.2874,-0.1457 0.2755,-0.1582 0.2645,-0.1701 0.2523,-0.1828 0.2418,-0.1939 0.2304,-0.2069 0.2186,-0.2186 0.2052,-0.2299 0.1939,-0.2383 0.1817,-0.2486 0.1695,-0.258 0.1571,-0.2662 0.146,-0.2755 0.1335,-0.2843 0.1216,-0.2931 0.1091,-0.3013 0.0975,-0.3065 0.0842,-0.3101 0.0712,-0.3138 0.0581,-0.3174 0.045,-0.3201 0.0321,-0.3237 0.0195,-0.3268 0.006,-0.3249 0,-18.0343 -0.006,-0.3135 -0.0178,-0.3161 -0.0307,-0.3143 -0.0428,-0.3115 -0.055,-0.3082 -0.0669,-0.3061 -0.0793,-0.303 -0.0919,-0.3005 -0.1034,-0.2957 -0.116,-0.2891 -0.1275,-0.2818 -0.1398,-0.2744 -0.1508,-0.2658 -0.163,-0.2591 -0.1752,-0.2509 -0.1873,-0.2441 -0.2001,-0.235 -0.2143,-0.2247 -0.2268,-0.2129 -0.2384,-0.201 -0.2509,-0.1888 -0.2627,-0.1763 -0.2739,-0.1638 -0.288,-0.1531 -0.3027,-0.1389 -0.3149,-0.1208 -0.3257,-0.1017 -0.3365,-0.0834 -0.3458,-0.0637 -0.3552,-0.0457 -0.3646,-0.0269 -0.3747,-0.0094 z m 0.004,28.5137 -0.4232,-0.017 -0.3813,-0.0504 -0.343,-0.0814 -0.3064,-0.1117 -0.2724,-0.14 -0.2421,-0.1687 -0.2152,-0.1981 -0.1978,-0.2401 -0.0862,-0.1253 -0.087,-0.1397 -0.0814,-0.1435 -0.0757,-0.1468 -0.0688,-0.1502 -0.0638,-0.1554 -0.0578,-0.1593 -0.0516,-0.163 -0.0457,-0.1669 -0.0399,-0.173 -0.0341,-0.1768 -0.0283,-0.1812 -0.021,-0.1856 -0.0161,-0.1917 -0.0094,-0.1953 -0.0037,-0.2046 0,-18.1004 0.0037,-0.189 0.0091,-0.1826 0.015,-0.18 0.0213,-0.1783 0.0275,-0.1752 0.0331,-0.1735 0.0394,-0.1723 0.0445,-0.1695 0.0505,-0.1616 0.0564,-0.1565 0.0626,-0.1513 0.0678,-0.1452 0.0745,-0.1397 0.0811,-0.1358 0.087,-0.1315 0.091,-0.1242 0.0967,-0.1162 0.1032,-0.1106 0.1097,-0.1046 0.1162,-0.098 0.1241,-0.0927 0.1324,-0.0882 0.1392,-0.0822 0.1449,-0.0748 0.1502,-0.0666 0.157,-0.0584 0.1644,-0.0499 0.1715,-0.0408 0.1806,-0.0324 0.1891,-0.0232 0.1981,-0.0142 0.2004,-0.0048 0.3906,0.0179 0.3501,0.0501 0.3164,0.082 0.2843,0.1111 0.2551,0.1406 0.2293,0.1698 0.2075,0.2027 0.1933,0.246 0.0859,0.1301 0.0859,0.1417 0.08,0.1457 0.0737,0.1483 0.068,0.1522 0.0624,0.1554 0.0558,0.1593 0.0507,0.163 0.0454,0.1669 0.0388,0.1704 0.0332,0.1743 0.0269,0.1783 0.0216,0.1831 0.015,0.1863 0.0091,0.191 0.0031,0.1993 0,18.0156 -0.0031,0.1797 -0.0091,0.1738 -0.0148,0.1743 -0.0212,0.1746 -0.0272,0.1752 -0.0335,0.174 -0.0394,0.1755 -0.0459,0.1752 -0.051,0.1709 -0.0564,0.1633 -0.0618,0.1582 -0.0678,0.1527 -0.0725,0.1474 -0.0786,0.1418 -0.0841,0.1366 -0.0896,0.1313 -0.0936,0.1238 -0.0983,0.1154 -0.1038,0.1094 -0.1108,0.1029 -0.1168,0.0978 -0.123,0.0913 -0.1299,0.0853 -0.1366,0.0791 -0.1383,0.07 -0.1417,0.0593 -0.1503,0.051 -0.159,0.0425 -0.1661,0.0334 -0.1746,0.0241 -0.184,0.0142 -0.1896,0.0048 z" />
      <path
         inkscape:connector-curvature="0"
         id="path80"
         style="fill:#ad2a4d;fill-opacity:1;fill-rule:evenodd;stroke:none"
         d="m 114.6699,54.7109 0,-3.0807 -9.8881,0 0,31.038 3.3375,0 0,-27.9573 6.5506,0 z" />
      <path
         inkscape:connector-curvature="0"
         id="path82"
         style="fill:#ad2a4d;fill-opacity:1;fill-rule:evenodd;stroke:none"
         d="m 116.2349,51.6302 0,31.038 3.3375,0 0,-31.038 -3.3375,0 z" />
      <path
         inkscape:connector-curvature="0"
         id="path84"
         style="fill:#ad2a4d;fill-opacity:1;fill-rule:evenodd;stroke:none"
         d="m 128.0316,51.3303 -0.3722,0.0088 -0.3634,0.0247 -0.354,0.0419 -0.3462,0.0579 -0.3364,0.0759 -0.3269,0.093 -0.3169,0.1097 -0.3073,0.1267 -0.2928,0.1417 -0.282,0.1531 -0.2704,0.1658 -0.2614,0.1783 -0.25,0.1919 -0.2393,0.2036 -0.2279,0.2163 -0.2171,0.2281 -0.2041,0.2393 -0.1913,0.2458 -0.1789,0.2554 -0.1672,0.2641 -0.1537,0.273 -0.1414,0.2804 -0.1287,0.2885 -0.1171,0.2974 -0.1032,0.305 -0.0893,0.3098 -0.0751,0.3155 -0.0621,0.3203 -0.0476,0.3257 -0.0343,0.33 -0.0207,0.335 -0.007,0.3345 0,18.1211 0.006,0.3149 0.0196,0.3175 0.0326,0.3152 0.0451,0.3121 0.0584,0.3104 0.0714,0.3067 0.0842,0.3036 0.0969,0.3007 0.11,0.2965 0.1213,0.2886 0.1335,0.2818 0.1446,0.2732 0.1571,0.2668 0.1686,0.2579 0.18,0.25 0.1928,0.2438 0.208,0.2361 0.2217,0.224 0.235,0.2117 0.2475,0.1987 0.2607,0.1857 0.2727,0.1724 0.2849,0.1593 0.2985,0.1468 0.3141,0.1327 0.3268,0.115 0.3382,0.0964 0.3489,0.0794 0.3612,0.0609 0.3707,0.0431 0.3813,0.0255 0.3935,0.0094 0.354,-0.0094 0.347,-0.026 0.3398,-0.0437 0.3337,-0.0618 0.3254,-0.0796 0.3175,-0.0973 0.3092,-0.1153 0.2994,-0.1327 0.2877,-0.1457 0.275,-0.1582 0.2644,-0.1701 0.2523,-0.1828 0.2418,-0.1939 0.2305,-0.2069 0.2185,-0.2186 0.2052,-0.2299 0.1939,-0.2383 0.1814,-0.2486 0.1698,-0.258 0.1571,-0.2662 0.1457,-0.2755 0.1338,-0.2843 0.1216,-0.2931 0.1091,-0.3013 0.0975,-0.3065 0.0842,-0.3101 0.0712,-0.3138 0.0581,-0.3174 0.045,-0.3201 0.0321,-0.3237 0.0195,-0.3268 0.006,-0.3249 0,-18.0343 -0.006,-0.3135 -0.0178,-0.3161 -0.0307,-0.3143 -0.043,-0.3115 -0.0547,-0.3082 -0.0669,-0.3061 -0.0794,-0.303 -0.0919,-0.3005 -0.1034,-0.2957 -0.116,-0.2891 -0.1275,-0.2818 -0.1398,-0.2744 -0.1511,-0.2658 -0.1627,-0.2591 -0.1751,-0.2509 -0.1874,-0.2441 -0.2001,-0.235 -0.2143,-0.2247 -0.2268,-0.2129 -0.2384,-0.201 -0.2509,-0.1888 -0.2627,-0.1763 -0.2739,-0.1638 -0.288,-0.1531 -0.3027,-0.1389 -0.3152,-0.1208 -0.3254,-0.1017 -0.3368,-0.0834 -0.3455,-0.0637 -0.3552,-0.0457 -0.3646,-0.0269 -0.3744,-0.0094 z m 0.004,28.5137 -0.423,-0.017 -0.3812,-0.0504 -0.343,-0.0814 -0.3067,-0.1117 -0.2721,-0.14 -0.2421,-0.1687 -0.2152,-0.1981 -0.1978,-0.2401 -0.0862,-0.1253 -0.087,-0.1397 -0.0814,-0.1435 -0.0757,-0.1468 -0.0688,-0.1502 -0.0638,-0.1554 -0.0581,-0.1596 -0.0519,-0.163 -0.0454,-0.1666 -0.0399,-0.173 -0.034,-0.1768 -0.0284,-0.1812 -0.021,-0.1856 -0.0161,-0.1917 -0.01,-0.1953 -0.003,-0.2046 0,-18.1004 0.003,-0.189 0.009,-0.1826 0.0153,-0.18 0.0213,-0.1783 0.0275,-0.1752 0.0329,-0.1735 0.0396,-0.1723 0.0445,-0.1695 0.0502,-0.1616 0.0567,-0.1565 0.0627,-0.1513 0.0677,-0.1452 0.0746,-0.1397 0.0807,-0.1358 0.0871,-0.1312 0.0912,-0.1242 0.097,-0.1165 0.1032,-0.1108 0.1097,-0.1046 0.1159,-0.0978 0.1242,-0.0927 0.1323,-0.0882 0.1392,-0.0822 0.1446,-0.0748 0.1505,-0.0666 0.157,-0.0584 0.1645,-0.0499 0.1712,-0.0408 0.1808,-0.0324 0.1891,-0.0232 0.1981,-0.0142 0.2007,-0.0048 0.3906,0.0179 0.3501,0.0501 0.3164,0.082 0.2843,0.1111 0.2551,0.1406 0.229,0.1698 0.2075,0.2027 0.1934,0.2457 0.0858,0.1304 0.0859,0.1417 0.0797,0.1457 0.074,0.1483 0.068,0.1522 0.0621,0.1554 0.0561,0.1593 0.0507,0.163 0.0454,0.1669 0.0388,0.1704 0.0332,0.1743 0.0269,0.1783 0.0216,0.1831 0.015,0.1863 0.009,0.191 0.003,0.1993 0,18.0156 -0.003,0.1797 -0.009,0.1738 -0.015,0.1743 -0.021,0.1746 -0.0272,0.1752 -0.0335,0.174 -0.0394,0.1755 -0.0459,0.1752 -0.051,0.1712 -0.0561,0.1633 -0.0618,0.1579 -0.0678,0.1527 -0.0728,0.1474 -0.0786,0.1418 -0.0839,0.1363 -0.0898,0.1313 -0.0936,0.1241 -0.0983,0.1154 -0.1038,0.1094 -0.1108,0.1029 -0.1168,0.0978 -0.1233,0.0913 -0.1298,0.0856 -0.1364,0.0791 -0.1377,0.0697 -0.1426,0.0593 -0.15,0.051 -0.159,0.0425 -0.1661,0.0334 -0.1746,0.0241 -0.1837,0.0142 -0.1899,0.0048 z" />
      <path
         inkscape:connector-curvature="0"
         id="path86"
         style="fill:#ad2a4d;fill-opacity:1;fill-rule:evenodd;stroke:none"
         d="m 141.8511,51.3179 -0.3377,0.0382 -0.3316,0.053 -0.3249,0.0689 -0.318,0.0842 -0.3101,0.0998 -0.3036,0.1148 -0.2934,0.1304 -0.2832,0.1426 -0.2732,0.1564 -0.2645,0.1698 -0.2543,0.1837 -0.2435,0.1962 -0.2333,0.2095 -0.223,0.223 -0.2112,0.2359 -0.199,0.2469 -0.1857,0.2585 -0.1738,0.2696 -0.1604,0.2809 -0.1477,0.2908 -0.1346,0.3022 -0.1225,0.3127 -0.108,0.3223 -0.0938,0.3296 -0.0788,0.3365 -0.0649,0.343 -0.0502,0.3509 -0.0357,0.3566 -0.0213,0.3634 -0.007,0.3646 0,3.4509 3.295,0 0,-3.4535 -0.007,-0.2103 0.002,-0.1899 0.008,-0.1874 0.0153,-0.1834 0.0227,-0.1797 0.0295,-0.1775 0.0374,-0.1754 0.0434,-0.1718 0.0502,-0.1653 0.0572,-0.161 0.0638,-0.1548 0.0706,-0.1505 0.0771,-0.1448 0.0839,-0.1401 0.0913,-0.1366 0.0961,-0.1301 0.1026,-0.1227 0.1094,-0.118 0.1156,-0.1111 0.1211,-0.1052 0.1278,-0.0989 0.1352,-0.0935 0.1421,-0.0876 0.1459,-0.08 0.1497,-0.0703 0.1565,-0.0612 0.1655,-0.0521 0.1741,-0.0431 0.1859,-0.0338 0.1956,-0.0252 0.2055,-0.0147 0.2106,-0.0054 0.3915,0.0173 0.3524,0.0496 0.3197,0.0808 0.2874,0.1097 0.2594,0.1389 0.2339,0.1686 0.2117,0.1996 0.197,0.2415 0.0876,0.1273 0.0873,0.1403 0.0814,0.1434 0.0748,0.1474 0.0697,0.1525 0.0632,0.1562 0.0579,0.161 0.0519,0.1659 0.0462,0.1709 0.0399,0.1757 0.0343,0.1797 0.0275,0.1852 0.0218,0.1907 0.0154,0.1953 0.01,0.2007 0.003,0.2095 0,2.0021 -0.004,0.1573 -0.0119,0.1426 -0.0187,0.1352 -0.0261,0.1282 -0.0326,0.1204 -0.0394,0.1134 -0.0459,0.1077 -0.0547,0.1055 -0.0638,0.1083 -0.0717,0.108 -0.0779,0.1065 -0.0851,0.1052 -0.0921,0.104 -0.0984,0.1015 -0.1066,0.1007 -0.1167,0.1014 -0.1245,0.1024 -0.1301,0.1012 -0.1341,0.0995 -0.14,0.0978 -0.1451,0.0969 -0.1491,0.0947 -0.1542,0.093 -0.1625,0.0932 -0.1701,0.0961 -0.1746,0.0981 -0.1768,0.0992 -0.1809,0.1012 -0.1828,0.1023 -0.3734,0.2078 -0.1947,0.1074 -0.2293,0.1316 -0.2279,0.1306 -0.2299,0.1316 -0.2325,0.1335 -0.2338,0.1349 -0.2359,0.1355 -0.2378,0.1372 -0.2432,0.1398 -0.2466,0.1474 -0.2438,0.1527 -0.2384,0.1582 -0.2336,0.1633 -0.2279,0.1689 -0.2222,0.1732 -0.2166,0.1786 -0.2131,0.1846 -0.2084,0.1938 -0.2015,0.2024 -0.1933,0.2101 -0.1863,0.2182 -0.1777,0.2263 -0.1692,0.2332 -0.1616,0.241 -0.1562,0.2517 -0.1466,0.2693 -0.1312,0.2826 -0.114,0.2931 -0.0977,0.3033 -0.0803,0.3138 -0.0643,0.3229 -0.0471,0.3328 -0.0326,0.3529 0,6.023 0.005,0.3314 0.0159,0.3305 0.0266,0.3254 0.0369,0.3206 0.0485,0.3161 0.0584,0.3107 0.0697,0.3056 0.0805,0.3018 0.0938,0.2974 0.106,0.2891 0.1194,0.2812 0.1315,0.2722 0.1448,0.2636 0.1577,0.2542 0.1703,0.2452 0.1829,0.235 0.1964,0.2265 0.2081,0.2138 0.2202,0.2029 0.2316,0.1897 0.2432,0.178 0.2543,0.1655 0.265,0.1534 0.2781,0.1417 0.2934,0.1281 0.3067,0.1114 0.3178,0.0939 0.3291,0.0762 0.3401,0.0587 0.3495,0.0419 0.3609,0.0244 0.371,0.0088 0.3405,-0.0074 0.3316,-0.0221 0.3237,-0.0371 0.3147,-0.0516 0.3073,-0.0675 0.2976,-0.0819 0.2897,-0.0981 0.2795,-0.1128 0.2713,-0.129 0.261,-0.1442 0.2512,-0.1605 0.2401,-0.1754 0.2299,-0.1903 0.2182,-0.2055 0.2073,-0.2199 0.1938,-0.2325 0.182,-0.2406 0.1693,-0.2475 0.1576,-0.2548 0.1457,-0.2622 0.1343,-0.269 0.1219,-0.277 0.1106,-0.2835 0.0978,-0.2905 0.087,-0.2959 0.0748,-0.3036 0.0638,-0.3101 0.051,-0.3167 0.04,-0.3217 0.0283,-0.3291 0.0168,-0.3351 0.005,-0.3364 0,-4.4346 -3.2522,0 0,4.3804 -0.01,0.3881 -0.0309,0.3642 -0.0498,0.3478 -0.0703,0.3311 -0.0891,0.3155 -0.1085,0.3002 -0.1273,0.2857 -0.1431,0.2645 -0.1545,0.2268 -0.1707,0.1854 -0.1936,0.1567 -0.2202,0.1293 -0.2515,0.1037 -0.286,0.0766 -0.3237,0.0476 -0.3623,0.0162 -0.3055,-0.0134 -0.2846,-0.0399 -0.2631,-0.0647 -0.2452,-0.0895 -0.2279,-0.1143 -0.2137,-0.1394 -0.2004,-0.1664 -0.1931,-0.199 -0.0808,-0.099 -0.0802,-0.1116 -0.0754,-0.1208 -0.0714,-0.129 -0.0661,-0.1377 -0.0615,-0.1477 -0.0567,-0.1571 -0.0513,-0.1664 -0.0451,-0.1754 -0.0405,-0.186 -0.034,-0.1958 -0.0286,-0.205 -0.0216,-0.2146 -0.0164,-0.2253 -0.01,-0.2339 -0.003,-0.2469 0,-5.8816 0.0124,-0.1446 0.0199,-0.1491 0.0272,-0.144 0.034,-0.1391 0.0417,-0.1355 0.0479,-0.1327 0.0555,-0.1281 0.063,-0.1264 0.0711,-0.1253 0.0777,-0.1253 0.0828,-0.1214 0.0873,-0.1173 0.0929,-0.1137 0.099,-0.1114 0.1043,-0.1083 0.1103,-0.1057 0.1193,-0.106 0.1253,-0.1072 0.1295,-0.1051 0.1327,-0.1035 0.1372,-0.1015 0.1417,-0.1006 0.1451,-0.0984 0.1503,-0.098 0.1573,-0.0987 0.159,-0.0998 0.1602,-0.0995 0.1587,-0.0983 0.1596,-0.0975 0.1599,-0.0981 0.1585,-0.0961 0.1513,-0.0919 0.279,-0.1539 0.2837,-0.1581 0.2798,-0.156 0.2747,-0.1536 0.2715,-0.1516 0.267,-0.15 0.2634,-0.1477 0.2613,-0.1474 0.2614,-0.1505 0.256,-0.1565 0.2486,-0.1604 0.24,-0.1639 0.2328,-0.1681 0.2245,-0.1723 0.2171,-0.176 0.2086,-0.1806 0.2016,-0.1851 0.1933,-0.1916 0.1843,-0.197 0.1732,-0.2013 0.1635,-0.2058 0.1545,-0.2114 0.1449,-0.2163 0.1357,-0.2251 0.1273,-0.2395 0.112,-0.2563 0.0935,-0.2662 0.0757,-0.2761 0.0584,-0.2845 0.0414,-0.2951 0.0244,-0.3028 0.008,-0.3058 0,-2.1943 -0.005,-0.3229 -0.0173,-0.3246 -0.0283,-0.3211 -0.04,-0.3181 -0.051,-0.3146 -0.0629,-0.3121 -0.0746,-0.3084 -0.0865,-0.3056 -0.098,-0.3013 -0.1117,-0.2945 -0.1242,-0.2858 -0.138,-0.2775 -0.1497,-0.2676 -0.1627,-0.2591 -0.1752,-0.2494 -0.1888,-0.2412 -0.2021,-0.2308 -0.2163,-0.2202 -0.2293,-0.2078 -0.2423,-0.1959 -0.2546,-0.1828 -0.2673,-0.1712 -0.2787,-0.1576 -0.2933,-0.1472 -0.3079,-0.1329 -0.3209,-0.1154 -0.3316,-0.0969 -0.3424,-0.0791 -0.3524,-0.0612 -0.3625,-0.0434 -0.3725,-0.0255 -0.3827,-0.0094 -0.3518,0.0077 -0.3449,0.0227 z" />
    </g>
  </g>
</svg>
