<?xml version="1.0" encoding="UTF-8" standalone="no"?>
<!-- Created with Inkscape (http://www.inkscape.org/) -->

<svg
   xmlns:dc="http://purl.org/dc/elements/1.1/"
   xmlns:cc="http://creativecommons.org/ns#"
   xmlns:rdf="http://www.w3.org/1999/02/22-rdf-syntax-ns#"
   xmlns:svg="http://www.w3.org/2000/svg"
   xmlns="http://www.w3.org/2000/svg"
   xmlns:sodipodi="http://sodipodi.sourceforge.net/DTD/sodipodi-0.dtd"
   xmlns:inkscape="http://www.inkscape.org/namespaces/inkscape"
   width="45.000023mm"
   height="24.100674mm"
   viewBox="0 0 159.4489 85.396087"
   id="svg4333"
   version="1.1"
   inkscape:version="0.91 r13725"
   sodipodi:docname="name.svg">
  <defs
     id="defs4335" />
  <sodipodi:namedview
     id="base"
     pagecolor="#ffffff"
     bordercolor="#666666"
     borderopacity="1.0"
     inkscape:pageopacity="0.0"
     inkscape:pageshadow="2"
     inkscape:zoom="3.959798"
     inkscape:cx="76.143936"
     inkscape:cy="50.490576"
     inkscape:document-units="px"
     inkscape:current-layer="layer1"
     showgrid="false"
     fit-margin-top="0"
     fit-margin-left="0"
     fit-margin-right="0"
     fit-margin-bottom="0"
     inkscape:window-width="1881"
     inkscape:window-height="1176"
     inkscape:window-x="39"
     inkscape:window-y="24"
     inkscape:window-maximized="1" />
  <metadata
     id="metadata4338">
    <rdf:RDF>
      <cc:Work
         rdf:about="">
        <dc:format>image/svg+xml</dc:format>
        <dc:type
           rdf:resource="http://purl.org/dc/dcmitype/StillImage" />
        <dc:title></dc:title>
      </cc:Work>
    </rdf:RDF>
  </metadata>
  <g
     inkscape:label="Layer 1"
     inkscape:groupmode="layer"
     id="layer1"
     transform="translate(1254.0108,113.19298)">
    <path
       d="m -1203.8213,-97.766484 0,0.02937 -3.425,0 0,-0.02937 -0.8631,5.598375 -1.5789,0 3.2163,-20.846001 1.817,0 3.2456,20.846001 -1.5484,0 -0.8635,-5.598375 z m -0.179,-1.399625 -0.8039,-5.063121 -0.7445,-6.16425 -0.7447,6.16425 -0.7743,5.063121 3.0674,0 z"
       style="fill:#f6f5ed;fill-opacity:1;fill-rule:evenodd;stroke:none"
       id="path22"
       inkscape:connector-curvature="0" />
    <path
       d="m -1178.5759,-110.24461 0.7447,6.31313 1.8167,11.763371 1.6083,0 -3.2761,-20.876121 -1.8759,0 -3.1865,20.876121 1.5787,0 1.8158,-11.763371 0.7154,-6.31313 0.059,0 z"
       style="fill:#f6f5ed;fill-opacity:1;fill-rule:evenodd;stroke:none"
       id="path24"
       inkscape:connector-curvature="0" />
    <path
       d="m -1173.126,-92.168109 0,-20.846001 1.5778,0 0,20.846001 -1.5778,0 z"
       style="fill:#f6f5ed;fill-opacity:1;fill-rule:evenodd;stroke:none"
       id="path26"
       inkscape:connector-curvature="0" />
    <path
       d="m -1165.6443,-91.959359 c -0.6547,0 -1.2355,-0.1145 -1.7419,-0.342375 -0.5067,-0.2285 -0.9382,-0.541 -1.2955,-0.93825 -0.3575,-0.3975 -0.6306,-0.853875 -0.8191,-1.370125 -0.1881,-0.516 -0.2831,-1.071875 -0.2831,-1.667875 l 0,-12.596876 c 0,-0.55587 0.089,-1.09162 0.2686,-1.60787 0.1781,-0.51625 0.4365,-0.978 0.7741,-1.38513 0.337,-0.40712 0.764,-0.7295 1.2803,-0.96762 0.5166,-0.23813 1.1217,-0.3575 1.8166,-0.3575 0.6155,0 1.1714,0.11937 1.6679,0.3575 0.496,0.23812 0.9134,0.55587 1.2504,0.95237 0.3377,0.39763 0.596,0.85925 0.7742,1.38513 0.1793,0.5265 0.2686,1.07712 0.2686,1.65287 l 0,12.537751 c 0,0.555875 -0.085,1.092 -0.2533,1.607875 -0.169,0.51625 -0.4168,0.978375 -0.7449,1.385125 -0.3274,0.407125 -0.7391,0.7345 -1.2355,0.9825 -0.4961,0.248375 -1.0719,0.3725 -1.7274,0.3725 z m 0,-19.833751 c -0.8929,0 -1.5439,0.28275 -1.9506,0.84825 -0.4071,0.56625 -0.6101,1.25613 -0.6101,2.07 l 0,12.596876 c 0,0.37775 0.049,0.739875 0.1488,1.087375 0.099,0.34725 0.2527,0.65525 0.4613,0.923125 0.2087,0.268125 0.4762,0.481875 0.8044,0.64025 0.3273,0.15875 0.7097,0.238125 1.1462,0.238125 0.8338,0 1.4496,-0.287375 1.8464,-0.8635 0.3972,-0.575875 0.5956,-1.26075 0.5956,-2.05475 l 0,-12.537751 c 0,-0.3575 -0.05,-0.71462 -0.1487,-1.07212 -0.099,-0.3575 -0.248,-0.67463 -0.4469,-0.95288 -0.1984,-0.27775 -0.4518,-0.50137 -0.7593,-0.67037 -0.3076,-0.16825 -0.6701,-0.25263 -1.0871,-0.25263"
       style="fill:#f6f5ed;fill-opacity:1;fill-rule:evenodd;stroke:none"
       id="path28"
       inkscape:connector-curvature="0" />
    <path
       d="m -1211.0057,-111.61448 0,-1.39963 -6.1346,0 0,20.846001 1.5786,0 0,-19.446371 4.556,0 z"
       style="fill:#f6f5ed;fill-opacity:1;fill-rule:evenodd;stroke:none"
       id="path30"
       inkscape:connector-curvature="0" />
    <path
       d="m -1212.5835,-92.168109 0,-20.846001 1.5778,0 0,20.846001 -1.5778,0 z"
       style="fill:#f6f5ed;fill-opacity:1;fill-rule:evenodd;stroke:none"
       id="path32"
       inkscape:connector-curvature="0" />
    <path
       d="m -1186.2837,-97.766484 0,0.02937 -3.425,0 0,-0.02937 -0.8635,5.598375 -1.5785,0 3.2163,-20.846001 1.817,0 3.2456,20.846001 -1.5484,0 -0.8635,-5.598375 z m -0.179,-1.399625 -0.804,-5.063121 -0.7443,-6.16425 -0.7449,6.16425 -0.7741,5.063121 3.0673,0 z"
       style="fill:#f6f5ed;fill-opacity:1;fill-rule:evenodd;stroke:none"
       id="path34"
       inkscape:connector-curvature="0" />
    <path
       d="m -1193.4682,-111.61448 0,-1.39963 -6.1345,0 0,20.846001 1.5787,0 0,-19.446371 4.5558,0 z"
       style="fill:#f6f5ed;fill-opacity:1;fill-rule:evenodd;stroke:none"
       id="path36"
       inkscape:connector-curvature="0" />
    <path
       d="m -1195.0459,-92.168109 0,-20.846001 1.5777,0 0,20.846001 -1.5777,0 z"
       style="fill:#f6f5ed;fill-opacity:1;fill-rule:evenodd;stroke:none"
       id="path38"
       inkscape:connector-curvature="0" />
    <path
       d="m -1156.3747,-110.24461 0.7445,6.31313 1.817,11.763371 1.6079,0 -3.2757,-20.876121 -1.8762,0 -3.1865,20.876121 1.5785,0 1.8164,-11.763371 0.715,-6.31313 0.059,0 z"
       style="fill:#f6f5ed;fill-opacity:1;fill-rule:evenodd;stroke:none"
       id="path40"
       inkscape:connector-curvature="0" />
    <path
       d="m -1150.925,-92.168109 0,-20.846001 1.5778,0 0,20.846001 -1.5778,0 z"
       style="fill:#f6f5ed;fill-opacity:1;fill-rule:evenodd;stroke:none"
       id="path42"
       inkscape:connector-curvature="0" />
    <path
       d="m -1143.4433,-91.959359 c -0.6549,0 -1.2356,-0.1145 -1.742,-0.342375 -0.5066,-0.2285 -0.9382,-0.541 -1.2954,-0.93825 -0.3575,-0.3975 -0.6307,-0.853875 -0.8192,-1.370125 -0.1881,-0.516 -0.2828,-1.071875 -0.2828,-1.667875 l 0,-12.596876 c 0,-0.55587 0.089,-1.09162 0.2683,-1.60787 0.1786,-0.51625 0.4365,-0.978 0.7742,-1.38513 0.337,-0.40712 0.7639,-0.7295 1.2802,-0.96762 0.5166,-0.23813 1.1222,-0.3575 1.8167,-0.3575 0.6154,0 1.1714,0.11937 1.6678,0.3575 0.4965,0.23812 0.9135,0.55587 1.2505,0.95237 0.3376,0.39763 0.596,0.85925 0.7741,1.38513 0.1794,0.5265 0.2686,1.07712 0.2686,1.65287 l 0,12.537751 c 0,0.555875 -0.085,1.092 -0.2534,1.607875 -0.169,0.51625 -0.4166,0.978375 -0.7447,1.385125 -0.3274,0.407125 -0.7391,0.7345 -1.2356,0.9825 -0.496,0.248375 -1.0718,0.3725 -1.7273,0.3725 z m 0,-19.833751 c -0.893,0 -1.5435,0.28275 -1.9506,0.84825 -0.4071,0.56625 -0.6101,1.25613 -0.6101,2.07 l 0,12.596876 c 0,0.37775 0.049,0.739875 0.1487,1.087375 0.099,0.34725 0.2526,0.65525 0.4614,0.923125 0.2086,0.268125 0.4762,0.481875 0.8044,0.64025 0.3273,0.15875 0.7096,0.238125 1.1462,0.238125 0.834,0 1.4495,-0.287375 1.8464,-0.8635 0.3972,-0.575875 0.5956,-1.26075 0.5956,-2.05475 l 0,-12.537751 c 0,-0.3575 -0.05,-0.71462 -0.1489,-1.07212 -0.099,-0.3575 -0.248,-0.67463 -0.4467,-0.95288 -0.1984,-0.27775 -0.4518,-0.50137 -0.7594,-0.67037 -0.3075,-0.16825 -0.6696,-0.25263 -1.087,-0.25263"
       style="fill:#f6f5ed;fill-opacity:1;fill-rule:evenodd;stroke:none"
       id="path44"
       inkscape:connector-curvature="0" />
    <path
       d="m -1131.4308,-111.61448 0,-1.39963 -6.1345,0 0,1.4315 1.5785,0 0,-0.0319 4.556,0 z"
       style="fill:#f6f5ed;fill-opacity:1;fill-rule:evenodd;stroke:none"
       id="path46"
       inkscape:connector-curvature="0" />
    <path
       d="m -1136.2437,-102.69348 -1.58,-10.35075 1.5785,0 1.5982,10.35075 -1.5967,0 z"
       style="fill:#f6f5ed;fill-opacity:1;fill-rule:evenodd;stroke:none"
       id="path48"
       inkscape:connector-curvature="0" />
    <path
       d="m -1131.4308,-93.389109 0,1.399625 -6.1345,0 0,-1.4315 1.5785,0 0,0.03188 4.556,0 z"
       style="fill:#f6f5ed;fill-opacity:1;fill-rule:evenodd;stroke:none"
       id="path50"
       inkscape:connector-curvature="0" />
    <path
       d="m -1136.2437,-102.96736 -1.58,11.008001 1.5785,0 1.5982,-11.008001 -1.5967,0 z"
       style="fill:#f6f5ed;fill-opacity:1;fill-rule:evenodd;stroke:none"
       id="path52"
       inkscape:connector-curvature="0" />
    <path
       d="m -1181.6033,-87.377609 -4.021,15.664625 0,5.211875 -1.5484,0 0,-5.211875 -3.9607,-15.664625 1.5785,0 1.9655,7.653625 1.1909,5.65825 1.2211,-5.68775 c 0.3376,-1.290375 0.67,-2.571 0.9981,-3.841625 0.3274,-1.271 0.6395,-2.531375 0.9375,-3.7825 l 1.6385,0 z"
       style="fill:#f6f5ed;fill-opacity:1;fill-rule:evenodd;stroke:none"
       id="path54"
       inkscape:connector-curvature="0" />
    <path
       d="m -1163.0343,-85.977234 0,12.536875 4.4971,0 0,1.369875 -4.4971,0 0,4.16975 5.6583,0 0,1.399625 -7.2362,0 0,-20.846375 7.2362,0 0,1.37025 -5.6583,0 z"
       style="fill:#f6f5ed;fill-opacity:1;fill-rule:evenodd;stroke:none"
       id="path56"
       inkscape:connector-curvature="0" />
    <path
       d="m -1150.6558,-72.099859 0,0.02938 -3.4249,0 0,-0.02938 -0.8635,5.59875 -1.5786,0 3.2163,-20.846375 1.817,0 3.2457,20.846375 -1.5485,0 -0.8635,-5.59875 z m -0.1789,-1.399625 -0.804,-5.063 -0.7445,-6.164375 -0.7447,6.164375 -0.7743,5.063 3.0675,0 z"
       style="fill:#f6f5ed;fill-opacity:1;fill-rule:evenodd;stroke:none"
       id="path58"
       inkscape:connector-curvature="0" />
    <path
       d="m -1203.7267,-66.292734 c -0.6548,0 -1.2356,-0.1145 -1.7418,-0.342375 -0.5068,-0.2285 -0.9383,-0.541 -1.2955,-0.93825 -0.3575,-0.3975 -0.6307,-0.853875 -0.8192,-1.36975 -0.1882,-0.51625 -0.2828,-1.07225 -0.2828,-1.667875 l 0,-12.596875 c 0,-0.555875 0.089,-1.092 0.2682,-1.60825 0.1786,-0.51625 0.4366,-0.978 0.7743,-1.385125 0.337,-0.40675 0.764,-0.7295 1.2802,-0.967625 0.5166,-0.238125 1.1221,-0.3575 1.8166,-0.3575 0.6155,0 1.1714,0.119375 1.6679,0.3575 0.496,0.238125 0.9134,0.556 1.2504,0.95275 0.3376,0.39725 0.596,0.85925 0.7742,1.385125 0.1793,0.526125 0.2685,1.07675 0.2685,1.652625 l 0,12.537625 c 0,0.555875 -0.085,1.092 -0.2532,1.60825 -0.1691,0.516 -0.4168,0.978 -0.7449,1.385125 -0.3274,0.40675 -0.7391,0.734125 -1.2355,0.98225 -0.4961,0.248375 -1.0719,0.372375 -1.7274,0.372375 z m 0,-19.83375 c -0.8928,0 -1.5435,0.282875 -1.9506,0.848625 -0.4071,0.565875 -0.6101,1.25575 -0.6101,2.07 l 0,12.596875 c 0,0.377375 0.049,0.739875 0.1487,1.087125 0.099,0.34725 0.2527,0.6555 0.4614,0.923 0.2088,0.26825 0.4763,0.481875 0.8044,0.64025 0.3274,0.15875 0.7097,0.2385 1.1462,0.2385 0.8338,0 1.4495,-0.28775 1.8464,-0.8635 0.3973,-0.575875 0.5956,-1.261125 0.5956,-2.055125 l 0,-12.537625 c 0,-0.3575 -0.05,-0.71475 -0.1487,-1.07225 -0.099,-0.3575 -0.2481,-0.674625 -0.4469,-0.952375 -0.1984,-0.27825 -0.4517,-0.50175 -0.7592,-0.67075 -0.3077,-0.168375 -0.6698,-0.25275 -1.0872,-0.25275"
       style="fill:#f6f5ed;fill-opacity:1;fill-rule:evenodd;stroke:none"
       id="path60"
       inkscape:connector-curvature="0" />
    <path
       d="m -1194.7235,-84.577984 0.7445,6.313125 1.817,11.76375 1.608,0 -3.2759,-20.8765 -1.8761,0 -3.1865,20.8765 1.5785,0 1.8163,-11.76375 0.715,-6.313125 0.059,0 z"
       style="fill:#f6f5ed;fill-opacity:1;fill-rule:evenodd;stroke:none"
       id="path62"
       inkscape:connector-curvature="0" />
    <path
       d="m -1190.9974,-67.900734 0,1.399625 -7.4526,0 0,-1.4315 1.9176,0 0,0.03187 5.535,0 z"
       style="fill:#f6f5ed;fill-opacity:1;fill-rule:evenodd;stroke:none"
       id="path64"
       inkscape:connector-curvature="0" />
    <path
       d="m -1174.1333,-85.947859 0,-1.399625 -6.1346,0 0,1.4315 1.5786,0 0,-0.03187 4.556,0 z"
       style="fill:#f6f5ed;fill-opacity:1;fill-rule:evenodd;stroke:none"
       id="path66"
       inkscape:connector-curvature="0" />
    <path
       d="m -1178.9462,-77.026859 -1.5796,-10.35075 1.5785,0 1.5978,10.35075 -1.5967,0 z"
       style="fill:#f6f5ed;fill-opacity:1;fill-rule:evenodd;stroke:none"
       id="path68"
       inkscape:connector-curvature="0" />
    <path
       d="m -1174.1333,-67.722109 0,1.39925 -6.1346,0 0,-1.4315 1.5786,0 0,0.03225 4.556,0 z"
       style="fill:#f6f5ed;fill-opacity:1;fill-rule:evenodd;stroke:none"
       id="path70"
       inkscape:connector-curvature="0" />
    <path
       d="m -1178.9462,-77.300359 -1.5796,11.007625 1.5785,0 1.5978,-11.007625 -1.5967,0 z"
       style="fill:#f6f5ed;fill-opacity:1;fill-rule:evenodd;stroke:none"
       id="path72"
       inkscape:connector-curvature="0" />
    <path
       d="m -1166.029,-85.947859 0,-1.399625 -6.1349,0 0,1.4315 1.5785,0 0,-0.03187 4.5564,0 z"
       style="fill:#f6f5ed;fill-opacity:1;fill-rule:evenodd;stroke:none"
       id="path74"
       inkscape:connector-curvature="0" />
    <path
       d="m -1170.8423,-77.026859 -1.5796,-10.35075 1.5785,0 1.5981,10.35075 -1.597,0 z"
       style="fill:#f6f5ed;fill-opacity:1;fill-rule:evenodd;stroke:none"
       id="path76"
       inkscape:connector-curvature="0" />
    <path
       d="m -1166.029,-67.722109 0,1.39925 -6.1349,0 0,-1.4315 1.5785,0 0,0.03225 4.5564,0 z"
       style="fill:#f6f5ed;fill-opacity:1;fill-rule:evenodd;stroke:none"
       id="path78"
       inkscape:connector-curvature="0" />
    <path
       d="m -1170.8423,-77.300359 -1.5796,11.007625 1.5785,0 1.5981,-11.007625 -1.597,0 z"
       style="fill:#f6f5ed;fill-opacity:1;fill-rule:evenodd;stroke:none"
       id="path80"
       inkscape:connector-curvature="0" />
    <path
       d="m -1140.7044,-85.947859 0,-1.399625 -6.1345,0 0,1.4315 1.5786,0 0,-0.03187 4.5559,0 z"
       style="fill:#f6f5ed;fill-opacity:1;fill-rule:evenodd;stroke:none"
       id="path82"
       inkscape:connector-curvature="0" />
    <path
       d="m -1145.5173,-77.026859 -1.5795,-10.35075 1.5785,0 1.5976,10.35075 -1.5966,0 z"
       style="fill:#f6f5ed;fill-opacity:1;fill-rule:evenodd;stroke:none"
       id="path84"
       inkscape:connector-curvature="0" />
    <path
       d="m -1140.7044,-67.722109 0,1.39925 -6.1345,0 0,-1.4315 1.5786,0 0,0.03225 4.5559,0 z"
       style="fill:#f6f5ed;fill-opacity:1;fill-rule:evenodd;stroke:none"
       id="path86"
       inkscape:connector-curvature="0" />
    <path
       d="m -1145.5173,-77.300359 -1.5795,11.007625 1.5785,0 1.5976,-11.007625 -1.5966,0 z"
       style="fill:#f6f5ed;fill-opacity:1;fill-rule:evenodd;stroke:none"
       id="path88"
       inkscape:connector-curvature="0" />
    <path
       d="m -1196.1472,-35.118359 12.9717,0 c -0.2849,-2.105875 0.9036,-3.706375 4.4536,-3.150375 -1.024,-1.141625 -2.0325,-2.4785 -2.8336,-4.112375 -0.01,0.0064 -0.013,0.01275 -0.021,0.01913 l -0.4408,-0.918125 c 0.014,-0.0095 0.029,-0.01937 0.043,-0.02938 -0.27,-0.655125 -0.5062,-1.354875 -0.6987,-2.10475 -0.3256,-1.2695 -0.2749,-2.5355 0.051,-3.704875 0.3656,-1.31275 1.081,-2.50575 2.0034,-3.449 0.9819,-1.004125 2.2195,-1.74725 3.5599,-2.090875 1.2427,-0.318625 4.0107,-0.20275 4.4717,1.37125 0.1605,0.549125 -1.4794,0.402125 -1.4226,1.223875 0.088,1.268125 -2.597,-0.862125 -2.6675,-1.89 -0.9301,0.238375 -1.8431,0.809625 -2.6203,1.604375 -0.8365,0.85575 -1.4888,1.948125 -1.8262,3.1595 -0.3058,1.09675 -0.3515,2.291125 -0.042,3.49725 0.7217,2.814125 2.0788,4.91075 3.516,6.58675 3.5443,-7.23375 9.501,-1.782625 9.3905,3.987625 l 13.865,0 45.6835,0 14.1487,0 0,1.032875 -73.7851,0 c -0.3139,2.09475 -1.4935,4.135 -3.9508,5.526125 -4.5121,2.554 -9.4198,-1.82375 -10.6352,-5.526125 l -71.0778,0 0,-1.032875 13.6854,0 44.1776,0 z m 18.6455,-2.39775 c -9.3851,-1.00275 -0.4853,11.831375 5.6314,7.4795 7.7518,-5.514375 -2.6216,-18.006375 -5.6314,-7.4795 z m -2.155,1.258875 c -0.7575,0.3285 -1.1008,0.833 -1.1335,1.408875 0.2878,-0.0535 0.5978,-0.095 0.9387,-0.12225 0.043,-0.46875 0.1102,-0.895375 0.1948,-1.286625 z m 9.1967,3.23575 c 1.4956,-4.042875 -2.4048,-8.91175 -5.1867,-6.945625 2.5569,0.111375 5.1233,3.410875 5.1867,6.945625"
       style="fill:#ffffff;fill-opacity:1;fill-rule:evenodd;stroke:none"
       id="path96"
       inkscape:connector-curvature="0" />
  </g>
</svg>
